<svg width="64" height="64" viewBox="0 0 64 64" fill="none" xmlns="http://www.w3.org/2000/svg">
  <rect width="64" height="64" rx="12" fill="#003468"/>
  <path d="M14 42V22h10.5c4.5 0 7.5 2.4 7.5 6.4 0 3-1.6 5.2-4.4 6.1L33 42h-4.6l-4.1-6.6h-5.8V42H14Zm4.5-10.4h5.6c2.2 0 3.5-1.1 3.5-2.9 0-1.9-1.3-2.9-3.5-2.9h-5.6v5.8Z" fill="#FFFFFF"/>
  <path d="M40 22h4.6l5.4 9.6V22h4.5v20h-4.5v-6.9L44.5 42H40l6.2-10.4L40 22Z" fill="#05B0FA"/>
  <path d="M12 48h40" stroke="#05B0FA" stroke-opacity="0.6" stroke-width="2" stroke-dasharray="2 4"/>
</svg>
